<?xml version="1.0" encoding="UTF-8" standalone="no"?>
<!-- Created with Inkscape (http://www.inkscape.org/) -->

<svg
   version="1.1"
   id="svg310"
   width="1387.8403"
   height="438.4707"
   viewBox="0 0 1387.8404 438.4707"
   sodipodi:docname="sh-inkscape.svg"
   inkscape:export-filename="test.svg"
   inkscape:export-xdpi="96"
   inkscape:export-ydpi="96"
   xmlns:inkscape="http://www.inkscape.org/namespaces/inkscape"
   xmlns:sodipodi="http://sodipodi.sourceforge.net/DTD/sodipodi-0.dtd"
   xmlns="http://www.w3.org/2000/svg"
   xmlns:svg="http://www.w3.org/2000/svg">
  <sodipodi:namedview
     id="namedview240"
     pagecolor="#ffffff"
     bordercolor="#000000"
     borderopacity="0.25"
     inkscape:showpageshadow="2"
     inkscape:pageopacity="0.0"
     inkscape:pagecheckerboard="0"
     inkscape:deskcolor="#d1d1d1"
     showgrid="false"
     showguides="true" />
  <defs
     id="defs314">
    <rect
       x="19.202343"
       y="507.64093"
       width="763.61621"
       height="85.140381"
       id="rect503-2" />
  </defs>
  <g
     id="layer1"
     transform="translate(-16.940638,-18.768982)"
     inkscape:label="layer1"
     inkscape:export-filename="./layer1.svg"
     inkscape:export-xdpi="96"
     inkscape:export-ydpi="96">
    <g
       aria-label="Batterie Logistik"
       transform="matrix(1.5394094,0,0,1.0040269,-17.137485,-128.29446)"
       id="text501-9"
       style="font-size:66.6667px;font-family:Arial;-inkscape-font-specification:Arial;white-space:pre;shape-inside:url(#rect503-2);display:inline;fill:#181818;stroke-width:1.99986"
       inkscape:label="batterie-logistik">
      <path
         d="m 24.08594,567.69095 v -47.72138 h 17.903656 q 5.468752,0 8.756515,1.46485 3.320314,1.43229 5.175784,4.45963 1.888021,2.9948 1.888021,6.28256 0,3.0599 -1.660157,5.76172 -1.660157,2.70183 -5.013023,4.36198 4.329429,1.26954 6.640628,4.32943 2.343752,3.0599 2.343752,7.22657 0,3.35287 -1.432293,6.25 -1.39974,2.86459 -3.483075,4.42709 -2.083334,1.5625 -5.240888,2.3763 -3.125001,0.78125 -7.682296,0.78125 z m 6.315108,-27.66928 h 10.319016 q 4.199221,0 6.022138,-0.55339 2.408856,-0.71615 3.613283,-2.3763 1.23698,-1.66016 1.23698,-4.16667 0,-2.37631 -1.139323,-4.16667 -1.139324,-1.82292 -3.25521,-2.47396 -2.115887,-0.68359 -7.259119,-0.68359 h -9.537765 z m 0,22.03777 h 11.881516 q 3.059898,0 4.296878,-0.22787 2.18099,-0.39062 3.645835,-1.30208 1.464845,-0.91146 2.408855,-2.63672 0.944011,-1.75781 0.944011,-4.03646 0,-2.66927 -1.367188,-4.6224 -1.367188,-1.98568 -3.808596,-2.76693 -2.408855,-0.8138 -6.966149,-0.8138 H 30.401048 Z"
         id="path308" />
      <path
         d="m 90.622436,563.42663 q -3.25521,2.76693 -6.282556,3.90625 -2.994793,1.13932 -6.445316,1.13932 -5.696617,0 -8.756515,-2.76693 -3.059897,-2.79948 -3.059897,-7.12891 0,-2.53906 1.139323,-4.62239 1.171876,-2.11589 3.027346,-3.38542 1.888021,-1.26954 4.231773,-1.92058 1.725261,-0.45573 5.208336,-0.8789 7.096358,-0.84636 10.449224,-2.01823 0.03255,-1.20443 0.03255,-1.52995 0,-3.58073 -1.660157,-5.04558 -2.246095,-1.98568 -6.673181,-1.98568 -4.134116,0 -6.119794,1.46485 -1.953127,1.43229 -2.897137,5.11068 l -5.72917,-0.78125 q 0.78125,-3.67839 2.571616,-5.92448 1.790365,-2.27865 5.175784,-3.48308 3.385418,-1.23698 7.845056,-1.23698 4.427086,0 7.194014,1.04167 2.766929,1.04166 4.069013,2.63672 1.302084,1.5625 1.822918,3.97135 0.292968,1.4974 0.292968,5.40365 v 7.81251 q 0,8.17057 0.358074,10.35157 0.390625,2.14843 1.497396,4.13411 h -6.119795 q -0.911459,-1.82292 -1.171875,-4.26432 z m -0.488282,-13.08595 q -3.190106,1.30209 -9.570317,2.21355 -3.613284,0.52083 -5.11068,1.17187 -1.497397,0.65104 -2.311199,1.92057 -0.813803,1.23698 -0.813803,2.76693 0,2.34375 1.757813,3.90626 1.790366,1.5625 5.208337,1.5625 3.385418,0 6.022138,-1.46485 2.63672,-1.4974 3.8737,-4.06901 0.944011,-1.98568 0.944011,-5.85938 z"
         id="path310" />
      <path
         d="m 117.93365,562.45006 0.84635,5.17579 q -2.47396,0.52083 -4.42708,0.52083 -3.19011,0 -4.94792,-1.00911 -1.75782,-1.00912 -2.47396,-2.63672 -0.71615,-1.66016 -0.71615,-6.9336 v -19.88933 h -4.29687 v -4.5573 h 4.29687 v -8.5612 l 5.82683,-3.51563 v 12.07683 h 5.89193 v 4.5573 h -5.89193 v 20.21485 q 0,2.50651 0.29297,3.22266 0.32552,0.71614 1.00911,1.13932 0.71615,0.42318 2.01823,0.42318 0.97657,0 2.57162,-0.22787 z"
         id="path312" />
      <path
         d="m 136.4558,562.45006 0.84635,5.17579 q -2.47396,0.52083 -4.42708,0.52083 -3.19011,0 -4.94792,-1.00911 -1.75782,-1.00912 -2.47396,-2.63672 -0.71615,-1.66016 -0.71615,-6.9336 v -19.88933 h -4.29688 v -4.5573 h 4.29688 v -8.5612 l 5.82683,-3.51563 v 12.07683 h 5.89193 v 4.5573 h -5.89193 v 20.21485 q 0,2.50651 0.29297,3.22266 0.32552,0.71614 1.00911,1.13932 0.71615,0.42318 2.01823,0.42318 0.97656,0 2.57162,-0.22787 z"
         id="path314" />
      <path
         d="m 165.85035,556.55813 6.05469,0.7487 q -1.4323,5.30599 -5.306,8.23568 -3.8737,2.92969 -9.89583,2.92969 -7.58464,0 -12.04428,-4.65495 -4.42709,-4.6875 -4.42709,-13.11849 0,-8.72397 4.49219,-13.54168 4.49219,-4.81771 11.65366,-4.81771 6.93359,0 11.32813,4.72006 4.39453,4.72005 4.39453,13.28125 0,0.52084 -0.0325,1.5625 h -25.78127 q 0.32553,5.69662 3.22266,8.72397 2.89714,3.02734 7.22657,3.02734 3.22266,0 5.5013,-1.69271 2.27865,-1.69271 3.61329,-5.40365 z m -19.23829,-9.47266 h 19.30339 q -0.39062,-4.36198 -2.21354,-6.54297 -2.79948,-3.38542 -7.25912,-3.38542 -4.03646,0 -6.80339,2.70183 -2.73438,2.70182 -3.02734,7.22656 z"
         id="path316" />
      <path
         d="m 179.19671,567.69095 v -34.57033 h 5.27344 v 5.24089 q 2.01823,-3.67839 3.71094,-4.85026 1.72526,-1.17188 3.77604,-1.17188 2.96224,0 6.02214,1.88802 l -2.01823,5.4362 q -2.14844,-1.26953 -4.29688,-1.26953 -1.92057,0 -3.45052,1.17188 -1.52995,1.13932 -2.18099,3.1901 -0.97656,3.125 -0.97656,6.83594 v 18.09897 z"
         id="path318" />
      <path
         d="m 201.4949,526.70786 v -6.73829 h 5.85937 v 6.73829 z m 0,40.98309 v -34.57033 h 5.85937 v 34.57033 z"
         id="path320" />
      <path
         d="m 239.93892,556.55813 6.05469,0.7487 q -1.43229,5.30599 -5.30599,8.23568 -3.8737,2.92969 -9.89584,2.92969 -7.58464,0 -12.04427,-4.65495 -4.42709,-4.6875 -4.42709,-13.11849 0,-8.72397 4.49219,-13.54168 4.49219,-4.81771 11.65365,-4.81771 6.9336,0 11.32813,4.72006 4.39454,4.72005 4.39454,13.28125 0,0.52084 -0.0325,1.5625 h -25.78127 q 0.32552,5.69662 3.22266,8.72397 2.89714,3.02734 7.22657,3.02734 3.22265,0 5.5013,-1.69271 2.27865,-1.69271 3.61328,-5.40365 z m -19.23829,-9.47266 h 19.3034 q -0.39063,-4.36198 -2.21354,-6.54297 -2.79949,-3.38542 -7.25912,-3.38542 -4.03646,0 -6.80339,2.70183 -2.73438,2.70182 -3.02735,7.22656 z"
         id="path322" />
      <path
         d="m 272.36081,567.69095 v -47.72138 h 6.31511 v 42.08987 h 23.50262 v 5.63151 z"
         id="path324" />
      <path
         d="m 306.76838,550.40579 q 0,-9.60287 5.33855,-14.22527 4.45964,-3.84115 10.8724,-3.84115 7.12891,0 11.65365,4.6875 4.52474,4.65495 4.52474,12.89063 0,6.67319 -2.01823,10.51433 -1.98568,3.8086 -5.82682,5.92449 -3.8086,2.11588 -8.33334,2.11588 -7.25912,0 -11.75131,-4.65495 -4.45964,-4.65495 -4.45964,-13.41146 z m 6.02214,0 q 0,6.64062 2.89714,9.96094 2.89714,3.28776 7.29167,3.28776 4.36198,0 7.25912,-3.32031 2.89713,-3.32032 2.89713,-10.12371 0,-6.41276 -2.92968,-9.70052 -2.89714,-3.32032 -7.22657,-3.32032 -4.39453,0 -7.29167,3.28777 -2.89714,3.28776 -2.89714,9.92839 z"
         id="path326" />
      <path
         d="m 344.952,570.55554 5.69662,0.84635 q 0.35807,2.63672 1.98567,3.84115 2.18099,1.6276 5.95704,1.6276 4.06901,0 6.28255,-1.6276 2.21355,-1.62761 2.9948,-4.55729 0.45573,-1.79037 0.42317,-7.51954 -3.84114,4.52474 -9.57031,4.52474 -7.12891,0 -11.03517,-5.14323 -3.90625,-5.14323 -3.90625,-12.33725 0,-4.94792 1.79037,-9.11458 1.79036,-4.19923 5.17578,-6.47787 3.41797,-2.27865 8.00782,-2.27865 6.11979,0 10.09115,4.94792 v -4.16667 h 5.40365 v 29.88283 q 0,8.07292 -1.66016,11.42579 -1.6276,3.38542 -5.20833,5.33854 -3.54818,1.95313 -8.75652,1.95313 -6.1849,0 -9.99349,-2.79948 -3.8086,-2.76693 -3.67839,-8.36589 z m 4.85026,-20.76824 q 0,6.80339 2.70182,9.92839 2.70183,3.125 6.77084,3.125 4.03646,0 6.77084,-3.09245 2.73438,-3.125 2.73438,-9.76563 0,-6.34766 -2.83204,-9.57032 -2.79948,-3.22266 -6.77083,-3.22266 -3.90626,0 -6.64063,3.19011 -2.73438,3.15755 -2.73438,9.40756 z"
         id="path328" />
      <path
         d="m 383.13561,526.70786 v -6.73829 h 5.85938 v 6.73829 z m 0,40.98309 v -34.57033 h 5.85938 v 34.57033 z"
         id="path330" />
      <path
         d="m 395.57053,557.37194 5.79427,-0.91146 q 0.48828,3.48307 2.70183,5.33854 2.24609,1.85547 6.25,1.85547 4.03646,0 5.98959,-1.6276 1.95312,-1.66016 1.95312,-3.8737 0,-1.98568 -1.72526,-3.12501 -1.20443,-0.78125 -5.98959,-1.98567 -6.44531,-1.62761 -8.95182,-2.79948 -2.47396,-1.20443 -3.77605,-3.28777 -1.26953,-2.11588 -1.26953,-4.65495 0,-2.3112 1.04167,-4.26432 1.07422,-1.98568 2.89713,-3.28776 1.36719,-1.00912 3.71094,-1.69271 2.37631,-0.71615 5.07813,-0.71615 4.06901,0 7.12891,1.17188 3.09245,1.17187 4.5573,3.1901 1.46484,1.98568 2.01823,5.33855 l -5.72917,0.78125 q -0.39063,-2.66928 -2.27865,-4.16667 -1.85547,-1.4974 -5.27344,-1.4974 -4.03646,0 -5.76172,1.33464 -1.72526,1.33463 -1.72526,3.125 0,1.13932 0.71614,2.05078 0.71615,0.94401 2.2461,1.5625 0.8789,0.32552 5.17578,1.4974 6.21745,1.66016 8.65886,2.73438 2.47396,1.04166 3.8737,3.05989 1.39974,2.01823 1.39974,5.01303 0,2.92969 -1.72526,5.53385 -1.69271,2.57162 -4.91537,4.00391 -3.22266,1.39974 -7.29167,1.39974 -6.73828,0 -10.28646,-2.79948 -3.51563,-2.79948 -4.49219,-8.30078 z"
         id="path332" />
      <path
         d="m 444.0406,562.45006 0.84635,5.17579 q -2.47396,0.52083 -4.42708,0.52083 -3.19011,0 -4.94792,-1.00911 -1.75782,-1.00912 -2.47396,-2.63672 -0.71615,-1.66016 -0.71615,-6.9336 v -19.88933 h -4.29688 v -4.5573 h 4.29688 v -8.5612 l 5.82683,-3.51563 v 12.07683 h 5.89193 v 4.5573 h -5.89193 v 20.21485 q 0,2.50651 0.29297,3.22266 0.32552,0.71614 1.00911,1.13932 0.71615,0.42318 2.01823,0.42318 0.97656,0 2.57162,-0.22787 z"
         id="path334" />
      <path
         d="m 449.80233,526.70786 v -6.73829 h 5.85938 v 6.73829 z m 0,40.98309 v -34.57033 h 5.85938 v 34.57033 z"
         id="path336" />
      <path
         d="m 464.61352,567.69095 v -47.72138 h 5.85938 v 27.21356 l 13.86719,-14.06251 h 7.58464 l -13.21615,12.82553 14.55079,21.7448 h -7.22657 l -11.42579,-17.67579 -4.13411,3.97136 v 13.70443 z"
         id="path338" />
    </g>
    <path
       style="fill:#778899;fill-opacity:1;stroke:none;stroke-width:2"
       d="m 46.36865,247.99166 68.40131,-6.47263 c 5.56688,22.18694 11.36983,44.21009 34.7395,54.04427 52.46237,21.06319 81.0683,5.88532 98.56619,-6.70718 17.58939,-17.86011 22.27965,-48.19342 -7.83681,-59.51997 C 185.10862,208.49391 113.20275,210.46608 77.72188,162.90129 58.61768,143.55859 45.45932,79.843953 102.51305,40.986573 c 35.80404,-24.12309 95.87102,-31.4581098 164.1143,-7.57583 26.33868,11.08373 55.36707,31.47461 56.6404,85.896707 l -69.0093,2.58744 C 247.56269,97.301423 240.3355,92.221103 233.27616,86.573033 c -18.98625,-15.49184 -93.45043,-16.34722 -102.65988,11.24392 -1.84521,6.882597 -8.4869,20.833417 12.00088,31.188337 22.36689,10.65391 49.99712,18.75164 76.92085,24.33891 41.73625,8.6612 80.59524,24.40782 96.65901,47.78193 23.99089,32.12249 22.93806,68.07235 4.33418,106.70451 C 296.56604,344.95615 258.34117,358.39586 214.32,362.20776 156.57354,365.42267 110.04086,354.18993 77.58818,324.81678 58.18536,301.33565 45.11734,276.3566 46.36865,247.99166 Z"
       id="path563-3"
       inkscape:label="S-shaddow" />
    <path
       style="fill:#5786d1;fill-opacity:0.992157;stroke:none;stroke-width:2"
       d="m 20.023327,258.7734 68.401317,-6.47263 c 5.566881,22.18694 11.369822,44.21009 34.739496,54.04427 52.46237,21.06319 81.0683,5.88532 98.56619,-6.70718 17.58939,-17.86011 22.27965,-48.19342 -7.83681,-59.51997 C 158.7633,219.27565 86.857428,221.24782 51.376559,173.68303 32.272364,154.34033 19.114,90.625695 76.167726,51.768315 111.97177,27.645221 172.03875,20.310204 240.28203,44.192479 c 26.33868,11.083735 55.36707,31.474615 56.6404,85.896711 l -69.0093,2.58744 C 221.21737,108.08316 213.99018,103.00284 206.93084,97.354772 187.94459,81.862936 113.48041,81.007556 104.27096,108.59869 c -1.84521,6.8826 -8.486896,20.83342 12.00088,31.18834 22.36689,10.65391 49.99712,18.75164 76.92085,24.33891 41.73625,8.6612 80.59524,24.40782 96.65901,47.78193 23.99089,32.12249 22.93806,68.07235 4.33418,106.70451 -23.96516,37.12551 -62.19003,50.56522 -106.2112,54.37712 C 130.22822,376.20441 83.695544,364.97167 51.242863,335.59852 31.840043,312.11739 18.772019,287.13834 20.023327,258.7734 Z"
       id="path563"
       inkscape:label="S" />
    <path
       style="display:inline;fill:#778899;fill-opacity:1;stroke:none;stroke-width:2"
       d="M 456.6011,28.550201 V 359.46121 h 71.65665 v -145.283 h 139.289 v 145.283 h 71.657 V 28.550201 H 667.54679 V 157.30978 H 528.25775 V 28.550201 Z"
       id="path717-6"
       inkscape:label="H-shaddow" />
    <path
       style="display:inline;fill:#5786d1;fill-opacity:0.992157;stroke:none;stroke-width:2"
       d="M 432.05835,36.845 V 367.756 H 503.715 V 222.473 h 139.289 v 145.283 h 71.657 V 36.845 H 643.00404 V 165.60457 H 503.715 V 36.845 Z"
       id="path717"
       inkscape:label="H" />
    <path
       style="fill:#5786d1;fill-opacity:0.992157;stroke:none;stroke-width:1.99074"
       d="M 793.44064,217.41687 V 252.411 l 605.99996,-1.1e-4 v -32.47576 z"
       id="path748"
       inkscape:label="strich" />
    <g
       aria-label="Mobile"
       transform="scale(1.0211926,0.97924721)"
       id="text1242"
       style="font-size:209.685px;font-family:Arial;-inkscape-font-specification:'Arial, Normal';fill:#181818;stroke-width:2.04239"
       inkscape:label="mobile">
      <path
         d="M 776.97455,183.04935 V 32.952566 h 29.89649 l 35.52768,106.275894 q 4.91449,14.84586 7.16697,22.2176 2.55963,-8.19082 7.98605,-24.06054 L 893.48896,32.952566 h 26.72255 V 183.04935 H 901.06547 V 57.422642 L 857.44935,183.04935 H 839.53194 L 796.12059,55.272552 V 183.04935 Z"
         id="path341" />
      <path
         d="m 943.04342,128.68278 q 0,-30.203652 16.79118,-44.742358 14.02678,-12.08146 34.19668,-12.08146 22.42232,0 36.65392,14.743477 14.2315,14.641091 14.2315,40.544561 0,20.98898 -6.3478,33.07044 -6.2455,11.97907 -18.327,18.63411 -11.9791,6.65504 -26.21062,6.65504 -22.83192,0 -36.96108,-14.64109 -14.02678,-14.64109 -14.02678,-42.18272 z m 18.94127,0 q 0,20.88659 9.11229,31.32989 9.11229,10.34091 22.9343,10.34091 13.71962,0 22.83192,-10.4433 9.1123,-10.4433 9.1123,-31.84181 0,-20.1699 -9.2147,-30.510809 -9.1123,-10.443296 -22.72952,-10.443296 -13.82201,0 -22.9343,10.340911 -9.11229,10.340914 -9.11229,31.227504 z"
         id="path343" />
      <path
         d="m 1083.516,183.04935 h -17.0983 V 32.952566 h 18.4293 v 53.547488 q 11.6719,-14.641092 29.7941,-14.641092 10.0338,0 18.9413,4.095411 9.0099,3.993024 14.7435,11.364763 5.8359,7.269353 9.1122,17.610264 3.2764,10.34091 3.2764,22.11521 0,27.95118 -13.822,43.20658 -13.822,15.2554 -33.1729,15.2554 -19.2484,0 -30.2036,-16.07448 z m -0.2048,-55.18565 q 0,19.55558 5.3241,28.25833 8.7027,14.23155 23.5486,14.23155 12.0814,0 20.8866,-10.4433 8.8051,-10.54568 8.8051,-31.32989 0,-21.29613 -8.498,-31.43227 -8.3956,-10.13614 -20.3747,-10.13614 -12.0814,0 -20.8865,10.545681 -8.8052,10.443299 -8.8052,30.306039 z"
         id="path345" />
      <path
         d="M 1183.2392,54.146314 V 32.952566 h 18.4294 v 21.193748 z m 0,128.903036 V 74.316209 h 18.4294 V 183.04935 Z"
         id="path347" />
      <path
         d="M 1229.3126,183.04935 V 32.952566 h 18.4293 V 183.04935 Z"
         id="path349" />
      <path
         d="m 1350.7415,148.03359 19.0437,2.35486 q -4.505,16.6888 -16.6888,25.90347 -12.1839,9.21467 -31.1252,9.21467 -23.8557,0 -37.8825,-14.64109 -13.9244,-14.74347 -13.9244,-41.26125 0,-27.43925 14.1292,-42.59227 14.1291,-15.153018 36.6539,-15.153018 21.8081,0 35.6301,14.845862 13.822,14.845866 13.822,41.773186 0,1.63816 -0.1024,4.91449 h -81.0891 q 1.0238,17.91742 10.1361,27.43925 9.1123,9.52183 22.7295,9.52183 10.1362,0 17.3031,-5.32404 7.167,-5.32403 11.3648,-16.99595 z m -60.5097,-29.79411 h 60.7145 q -1.2287,-13.71962 -6.9622,-20.579434 -8.8052,-10.648066 -22.8319,-10.648066 -12.6958,0 -21.3986,8.497976 -8.6003,8.497974 -9.5218,22.729524 z"
         id="path351" />
    </g>
    <g
       aria-label="GmbH"
       transform="scale(0.99803415,1.0019697)"
       id="text1242-0"
       style="font-size:220.367px;font-family:Arial;-inkscape-font-specification:'Arial, Normal';fill:#181818;stroke-width:2.14643"
       inkscape:label="gmbh">
      <path
         d="m 874.09027,381.46587 v -18.50739 l 66.82027,-0.1076 v 58.53499 q -15.38695,12.26652 -31.74232,18.50738 -16.35536,6.13326 -33.57153,6.13326 -23.24184,0 -42.28723,-9.8993 -18.93779,-10.0069 -28.62188,-28.83708 -9.6841,-18.83019 -9.6841,-42.07202 0,-23.02663 9.5765,-42.93283 9.68409,-20.0138 27.76107,-29.6979 18.07699,-9.6841 41.64162,-9.6841 17.10857,0 30.88151,5.59526 13.88054,5.48765 21.73542,15.38695 7.85488,9.8993 11.94372,25.82426 l -18.83019,5.16485 q -3.55084,-12.05132 -8.82329,-18.93779 -5.27245,-6.88647 -15.06415,-10.97531 -9.7917,-4.19644 -21.73542,-4.19644 -14.31094,0 -24.74825,4.41164 -10.4373,4.30405 -16.89336,11.40572 -6.34847,7.10167 -9.8993,15.60215 -6.02566,14.63375 -6.02566,31.74232 0,21.08981 7.20927,35.29316 7.31687,14.20334 21.19741,21.08981 13.88054,6.88647 29.4827,6.88647 13.55773,0 26.46986,-5.16486 12.91213,-5.27245 19.5834,-11.19051 v -29.37509 z"
         id="path299" />
      <path
         d="M 969.20962,443.33649 V 329.06414 h 17.32377 v 16.03256 q 5.38005,-8.39288 14.31091,-13.45013 8.9309,-5.16485 20.3366,-5.16485 12.697,0 20.767,5.27245 8.1777,5.27245 11.5134,14.74135 13.5577,-20.0138 35.2931,-20.0138 17.001,0 26.1471,9.46889 9.1461,9.3613 9.1461,28.94469 v 78.44119 h -19.2606 v -71.98512 q 0,-11.62092 -1.9368,-16.67817 -1.8293,-5.16485 -6.7789,-8.28528 -4.9497,-3.12043 -11.6209,-3.12043 -12.0514,0 -20.0138,8.07008 -7.9625,7.96248 -7.9625,25.60905 v 66.38987 h -19.3682 v -74.24475 q 0,-12.91213 -4.7345,-19.36819 -4.7344,-6.45606 -15.4945,-6.45606 -8.1777,0 -15.1718,4.30404 -6.88643,4.30404 -10.00686,12.58932 -3.12043,8.28529 -3.12043,23.88744 v 59.2882 z"
         id="path301" />
      <path
         d="m 1170.6388,443.33649 h -17.9693 V 285.59331 h 19.3682 v 56.27536 q 12.2665,-15.38695 31.3119,-15.38695 10.5449,0 19.9062,4.30404 9.4689,4.19644 15.4945,11.94372 6.1333,7.63968 9.5765,18.50739 3.4433,10.8677 3.4433,23.24183 0,29.37509 -14.5262,45.40765 -14.5261,16.03256 -34.8627,16.03256 -20.229,0 -31.7424,-16.89337 z m -0.2152,-57.99698 q 0,20.5518 5.5953,29.69789 9.1461,14.95655 24.7482,14.95655 12.697,0 21.9507,-10.97531 9.2537,-11.08291 9.2537,-32.92593 0,-22.38102 -8.9309,-33.03353 -8.8233,-10.6525 -21.4127,-10.6525 -12.6969,0 -21.9506,11.08291 -9.2537,10.97531 -9.2537,31.84992 z"
         id="path303" />
      <path
         d="M 1278.4551,443.33649 V 285.59331 h 20.8746 v 64.77585 h 81.992 v -64.77585 h 20.8746 v 157.74318 h -20.8746 v -74.35235 h -81.992 v 74.35235 z"
         id="path305" />
    </g>
  </g>
</svg>
