<?xml version="1.0" encoding="UTF-8" standalone="no"?>
<svg
   width="215"
   height="40"
   viewBox="0 0 215 40"
   fill="none"
   version="1.1"
   id="svg484"
   xmlns="http://www.w3.org/2000/svg"
   xmlns:svg="http://www.w3.org/2000/svg">
  <defs
     id="defs488" />
  <g
     id="layer2"
     style="display:inline">
    <g
       id="g8129"
       transform="matrix(1.6,0,0,1.6,-8,-16)">
      <rect
         style="fill:#5786d1;fill-opacity:1;stroke-width:3.64417"
         id="rect5128"
         width="25"
         height="25"
         x="5"
         y="10" />
      <g
         id="g8117"
         transform="matrix(1.0767936,0,0,1,4.512032,-1.473962)">
        <path
           d="m 5,14.659962 h 7.062217 l -4.413886,4.732104 v 0.78869 h 2.648331 L 9.413885,24.124171 H 5 Z"
           fill="#000000"
           id="path5964"
           style="fill:#ffffff;fill-opacity:1;stroke-width:0.834403" />
        <path
           d="m 12.062217,18.603382 0.882778,-3.94342 h 4.413885 v 2.366051 h 1.765554 v 4.732105 H 17.35888 v 2.366053 h -7.062218 l 4.413887,-4.732105 v -0.788689 z"
           fill="#000000"
           id="path5966"
           style="fill:#ffffff;fill-opacity:1;stroke-width:0.834403" />
      </g>
      <g
         id="g4313"
         transform="matrix(0.16287696,0,0,0.15952266,2.4922231,15.628965)">
        <path
           style="fill:#ffffff;fill-opacity:1;stroke:none;stroke-width:0.263473"
           d="m 45.46715,86.345915 9.010928,-0.85268 c 0.73336,2.92282 1.497817,5.82406 4.576449,7.11958 6.911192,2.77479 10.679629,0.77531 12.984734,-0.88358 2.317159,-2.35282 2.935036,-6.34881 -1.032391,-7.84093 -7.262645,-2.74568 -16.735251,-2.48588 -21.409366,-8.75188 -2.516713,-2.54813 -4.250146,-10.941653 3.265894,-16.060579 4.716689,-3.177885 12.629683,-4.144171 21.619793,-0.998012 3.469757,1.460129 7.293847,4.146347 7.461591,11.315711 l -9.091022,0.34085 c -0.882075,-3.239845 -1.834157,-3.909108 -2.764127,-4.653161 -2.501177,-2.040835 -12.310804,-2.153519 -13.524022,1.481229 -0.243081,0.906687 -1.118031,2.744522 1.580951,4.108632 2.946528,1.40351 6.586429,2.47027 10.133259,3.20632 5.498174,1.14099 10.61731,3.21539 12.73349,6.29461 3.160468,4.23169 3.021772,8.96759 0.570968,14.05684 -3.157079,4.89078 -8.192677,6.661275 -13.991859,7.163445 -7.607298,0.42352 -13.737336,-1.05624 -18.012528,-4.925755 -2.556053,-3.09331 -4.277585,-6.38395 -4.112742,-10.12064 z"
           id="path563" />
        <path
           style="display:inline;fill:#ffffff;fill-opacity:1;stroke:none;stroke-width:0.263473"
           d="m 89.912183,57.109906 v 43.592964 h 9.439793 V 81.563835 h 18.349394 v 19.139035 h 9.43982 V 57.109906 h -9.43982 V 74.072205 H 99.351976 V 57.109906 Z"
           id="path717" />
      </g>
    </g>
    <g
       aria-label="sh-batterie"
       transform="scale(0.9787466,1.0217149)"
       id="text1117"
       style="font-size:27.8659px;font-family:Arial;-inkscape-font-specification:'Arial, Normal';fill:#2c4263;stroke:#2c4263;stroke-width:1.62177">
      <path
         d="m 57.329601,30.52623 c 4.458544,0 7.440195,-2.814456 7.440195,-6.715682 0,-3.901226 -2.814456,-6.65995 -6.687816,-6.65995 h -2.145674 c -1.532625,0 -2.591529,-1.003173 -2.591529,-2.340736 0,-1.226099 1.003173,-2.229272 2.591529,-2.229272 h 7.412329 V 8.7908278 h -7.217268 c -4.040555,0 -6.771414,2.5915292 -6.771414,5.9911682 0,3.455372 2.702993,5.907571 6.241962,5.907571 h 1.727686 c 2.340735,0 4.040555,1.253966 4.040555,3.037383 0,1.783418 -1.69982,3.009517 -4.040555,3.009517 H 49.72221 v 3.789763 z"
         style="font-family:Strasua;-inkscape-font-specification:Strasua"
         id="path2669" />
      <path
         d="m 70.67736,21.414081 h 6.437022 v 9.112149 h 3.789763 V 8.7908278 H 77.114382 V 17.624318 H 70.67736 V 8.7908278 H 66.887597 V 30.52623 h 3.789763 z"
         style="font-family:Strasua;-inkscape-font-specification:Strasua"
         id="path2671" />
      <path
         d="M 95.17149,21.386215 V 17.624318 H 83.328483 v 3.761897 z"
         style="font-family:Strasua;-inkscape-font-specification:Strasua"
         id="path2673" />
      <path
         d="m 104.70161,12.524858 c 2.98165,0 4.12415,0.724514 4.12415,2.507931 0,1.755552 -0.97531,2.563663 -2.6194,2.563663 h -2.61939 v 3.761897 h 2.61939 c 1.64409,0 2.92592,0.891709 2.92592,2.702992 0,1.811284 -1.83915,2.647261 -4.43067,2.647261 h -3.31605 V 12.524858 Z m 4.98799,6.548487 c 2.08994,-0.975307 2.73086,-2.953785 2.73086,-4.681471 0,-3.761897 -2.67513,-5.6289121 -7.49593,-5.6289121 H 97.595801 V 30.498364 h 6.520619 c 5.93544,0 8.6663,-2.870188 8.6663,-6.437023 0,-1.811283 -0.75238,-3.956958 -3.09312,-4.987996 z"
         style="font-family:Strasua;-inkscape-font-specification:Strasua"
         id="path2675" />
      <path
         d="m 112.5598,30.52623 h 4.51428 l 9.30721,-14.685329 V 30.52623 h 3.76189 V 10.518514 c 0,-1.1425023 -0.61305,-1.8948816 -1.58835,-1.8948816 -0.86384,0 -1.64409,0.3343908 -2.17354,1.1425019 z"
         style="font-family:Strasua;-inkscape-font-specification:Strasua"
         id="path2677" />
      <path
         d="M 146.50048,12.58059 V 8.7908278 H 131.62009 V 12.58059 h 5.54532 v 17.94564 h 3.78976 V 12.58059 Z"
         style="font-family:Strasua;-inkscape-font-specification:Strasua"
         id="path2679" />
      <path
         d="M 161.85461,12.58059 V 8.7908278 H 146.97422 V 12.58059 h 5.54531 v 17.94564 h 3.78977 V 12.58059 Z"
         style="font-family:Strasua;-inkscape-font-specification:Strasua"
         id="path2681" />
      <path
         d="m 174.0599,26.736467 h -6.99434 v -5.350252 h 5.8797 v -3.761897 h -5.8797 V 12.58059 h 6.82714 V 8.7908278 H 163.27579 V 30.52623 h 10.78411 z"
         style="font-family:Strasua;-inkscape-font-specification:Strasua"
         id="path2683" />
      <path
         d="m 185.37345,23.448291 c 5.09946,-0.808111 6.71568,-4.34708 6.71568,-7.217268 0,-4.820801 -3.62256,-7.4401952 -8.19257,-7.4401952 h -8.05325 V 30.52623 h 3.78977 V 12.58059 h 4.17988 c 2.78659,0 4.34708,1.253966 4.34708,3.734031 0,2.64726 -1.95061,3.929092 -5.9633,4.207751 -1.50476,0.111463 -2.25714,0.752379 -2.25714,1.950613 0,0.640915 0.36226,1.253965 1.03104,1.950613 l 5.76824,6.102632 h 5.29452 z"
         style="font-family:Strasua;-inkscape-font-specification:Strasua"
         id="path2685" />
      <path
         d="M 197.91312,30.52623 V 8.7908278 h -3.78976 V 30.52623 Z"
         style="font-family:Strasua;-inkscape-font-specification:Strasua"
         id="path2687" />
      <path
         d="m 211.1773,26.736467 h -6.99434 v -5.350252 h 5.8797 v -3.761897 h -5.8797 V 12.58059 h 6.82714 V 8.7908278 H 200.3932 V 30.52623 h 10.7841 z"
         style="font-family:Strasua;-inkscape-font-specification:Strasua"
         id="path2689" />
    </g>
  </g>
</svg>
