<svg xmlns="http://www.w3.org/2000/svg" viewBox="0 0 1440 260" preserveAspectRatio="none">
  <g stroke="#8fc8ff" stroke-width="2" stroke-opacity="0.35" fill="none">
    <path d="M700 120 H1440"></path>
    <path d="M820 170 H1440"></path>
    <path d="M900 220 H1440"></path>

    <path d="M920 40 V120 H1020 V200 H1120 V260"></path>
    <path d="M1080 60 V140 H1180 V210 H1280 V260"></path>
    <path d="M1240 80 V160 H1340 V220 H1440"></path>

    <polygon points="980,140 1010,120 1040,140 1040,180 1010,200 980,180"></polygon>
    <polygon points="1080,160 1110,140 1140,160 1140,200 1110,220 1080,200"></polygon>
    <polygon points="1180,130 1210,110 1240,130 1240,170 1210,190 1180,170"></polygon>
    <polygon points="1260,170 1290,150 1320,170 1320,210 1290,230 1260,210"></polygon>

    <line x1="1010" y1="200" x2="1010" y2="240"></line>
    <line x1="1110" y1="220" x2="1110" y2="260"></line>
    <line x1="1210" y1="190" x2="1210" y2="230"></line>
    <line x1="1290" y1="230" x2="1290" y2="260"></line>
  </g>

  <g stroke="#c2e6ff" stroke-width="2" stroke-opacity="0.18" fill="none">
    <path d="M850 90 H1440"></path>
    <path d="M1000 260 V200 H1150 V150"></path>
    <path d="M1100 260 V210 H1300 V160"></path>
  </g>
</svg>