<?xml version="1.0" encoding="UTF-8" standalone="no"?>
<svg
   width="25"
   height="25"
   viewBox="0 0 25 25"
   fill="none"
   version="1.1"
   id="svg4477"
   xmlns="http://www.w3.org/2000/svg"
   xmlns:svg="http://www.w3.org/2000/svg">
  <defs
     id="defs4481" />
  <g
     id="g8129"
     transform="translate(-5,-10)">
    <rect
       style="fill:#5786d1;fill-opacity:1;stroke-width:3.64417"
       id="rect5128"
       width="25"
       height="25"
       x="5"
       y="10" />
    <g
       id="g8117"
       transform="matrix(1.0767936,0,0,1,4.512032,-1.473962)">
      <path
         d="m 5,14.659962 h 7.062217 l -4.413886,4.732104 v 0.78869 h 2.648331 L 9.413885,24.124171 H 5 Z"
         fill="#000000"
         id="path5964"
         style="fill:#ffffff;fill-opacity:1;stroke-width:0.834403" />
      <path
         d="m 12.062217,18.603382 0.882778,-3.94342 h 4.413885 v 2.366051 h 1.765554 v 4.732105 H 17.35888 v 2.366053 h -7.062218 l 4.413887,-4.732105 v -0.788689 z"
         fill="#000000"
         id="path5966"
         style="fill:#ffffff;fill-opacity:1;stroke-width:0.834403" />
    </g>
    <g
       id="g4313"
       transform="matrix(0.16287696,0,0,0.15952266,2.4922231,15.628965)">
      <path
         style="fill:#ffffff;fill-opacity:1;stroke:none;stroke-width:0.263473"
         d="m 45.46715,86.345915 9.010928,-0.85268 c 0.73336,2.92282 1.497817,5.82406 4.576449,7.11958 6.911192,2.77479 10.679629,0.77531 12.984734,-0.88358 2.317159,-2.35282 2.935036,-6.34881 -1.032391,-7.84093 -7.262645,-2.74568 -16.735251,-2.48588 -21.409366,-8.75188 -2.516713,-2.54813 -4.250146,-10.941653 3.265894,-16.060579 4.716689,-3.177885 12.629683,-4.144171 21.619793,-0.998012 3.469757,1.460129 7.293847,4.146347 7.461591,11.315711 l -9.091022,0.34085 c -0.882075,-3.239845 -1.834157,-3.909108 -2.764127,-4.653161 -2.501177,-2.040835 -12.310804,-2.153519 -13.524022,1.481229 -0.243081,0.906687 -1.118031,2.744522 1.580951,4.108632 2.946528,1.40351 6.586429,2.47027 10.133259,3.20632 5.498174,1.14099 10.61731,3.21539 12.73349,6.29461 3.160468,4.23169 3.021772,8.96759 0.570968,14.05684 -3.157079,4.89078 -8.192677,6.661275 -13.991859,7.163445 -7.607298,0.42352 -13.737336,-1.05624 -18.012528,-4.925755 -2.556053,-3.09331 -4.277585,-6.38395 -4.112742,-10.12064 z"
         id="path563" />
      <path
         style="display:inline;fill:#ffffff;fill-opacity:1;stroke:none;stroke-width:0.263473"
         d="m 89.912183,57.109906 v 43.592964 h 9.439793 V 81.563835 h 18.349394 v 19.139035 h 9.43982 V 57.109906 h -9.43982 V 74.072205 H 99.351976 V 57.109906 Z"
         id="path717" />
    </g>
  </g>
</svg>
